# xmcd
#
# Track frame offsets:
#	150
#	13322
#	27247
#	50535
#	63485
#	77337
#	91702
#	107907
#	124182
#	136315
#	151072
#	166252
#	179405
#	197337
#
# Disc length: 2877
#
# Revision: 1
# Processed by: cddbd v1.5.1PL0 Copyright (c) Steve Scherf et al.
# Submitted via: VisiTrax 2.9.3.171 - For more info visit www.synapsa.com
# Normalized: r0:DSETVAR1
#
DISCID=ab0b3b0e
DTITLE=Various Artist - Mr Music Country 3-99
DYEAR=1900
DGENRE=
TTITLE0=Curt Ryle - Mothe Of All Heartaches
TTITLE1=Clay Blaker - Livin' Every Day Like It's Saturday Night
TTITLE2=Linda Ronstadt - Dreams Of The San Joaquin
TTITLE3=Tracy Lawrence - I Hit The Ground Crawlin'
TTITLE4=Karen Staley - Fearless
TTITLE5=Noel Haggard - One Lifetime
TTITLE6=The Great Divide - Dodgers Were In Brooklyn
TTITLE7=Mila Mason - The Strong One
TTITLE8=The Derailers - I don't Believe I Fall In Love Today
TTITLE9=Confederate Railroad - Momma Ain't Home Tonight
TTITLE10=Dwight Yoakam - Traveler's Lantern
TTITLE11=Joni Harms - Catalog Dreams
TTITLE12=Matt King - A Woman's Tears
TTITLE13=Nanci Griffin with Ian Tyson - Summer Wages
EXTD=
EXTT0=
EXTT1=
EXTT2=
EXTT3=
EXTT4=
EXTT5=
EXTT6=
EXTT7=
EXTT8=
EXTT9=
EXTT10=
EXTT11=
EXTT12=
EXTT13=
PLAYORDER=
